<?xml version="1.0" encoding="UTF-8"?>
<!DOCTYPE svg  PUBLIC '-//W3C//DTD SVG 1.1//EN'  'http://www.w3.org/Graphics/SVG/1.1/DTD/svg11.dtd' [
	<!ENTITY st0 "clip-path:url(#SVGID_2_);fill:url(#XMLID_8_);">
]>
<svg enable-background="new 0 0 269 87.7" version="1.1" viewBox="0 0 269 87.7" xml:space="preserve" xmlns="http://www.w3.org/2000/svg" xmlns:xlink="http://www.w3.org/1999/xlink">
	<defs>
		<path id="c" d="m79.7 4.5-21.7 54.9-8.8-46.7c-1-5.2-5.1-8.2-9.6-8.2h-35.6l-0.5 2.3c7.3 1.6 15.6 4.1 20.6 6.9 3.1 1.7 3.9 3.1 5 7.1l16.6 64.4h22.1l33.8-80.7h-21.9zm30.8 0-17.2 80.7h20.9l17.3-80.7h-21zm119.7 21.8 6.3 30.3h-17.3l11-30.3zm-3.1-21.8c-4 0-7.4 2.3-8.9 5.9l-31.3 74.8h21.9l4.4-12.1h26.8l2.5 12.1h19.3l-16.8-80.7h-17.9zm-90 25.2c-0.1 11.6 10.4 18.1 18.3 22 8.1 4 10.9 6.5 10.8 10-0.1 5.4-6.5 7.8-12.5 7.9-10.5 0.2-16.6-2.8-21.4-5.1l-3.8 17.7c4.9 2.2 13.9 4.2 23.2 4.3 21.9 0 36.3-10.8 36.3-27.6 0.1-21.3-29.4-22.5-29.2-32 0.1-2.9 2.8-6 8.9-6.8 3-0.4 11.2-0.7 20.6 3.6l3.7-17.1c-5-1.8-11.5-3.6-19.5-3.6-20.8 0-35.3 11-35.4 26.7"/>
	</defs>
	<clipPath id="b">
		<use xlink:href="#c"/>
	</clipPath>
		<linearGradient id="a" x1="-172.16" x2="-170.12" y1="442.24" y2="442.24" gradientTransform="matrix(126.55 0 0 -126.55 21790 56008)" gradientUnits="userSpaceOnUse">
		<stop stop-color="#241F5D" offset="0"/>
		<stop stop-color="#034EA1" offset="1"/>
	</linearGradient>
	<rect x="3.5" y="3" width="258.3" height="83.4" clip-path="url(#b)" fill="url(#a)"/>
</svg>
