<?xml version="1.0" encoding="UTF-8"?>
<!DOCTYPE svg  PUBLIC '-//W3C//DTD SVG 1.1//EN'  'http://www.w3.org/Graphics/SVG/1.1/DTD/svg11.dtd' [
	<!ENTITY st0 "fill:#1E4598;">
	<!ENTITY st1 "fill:#FFFFFF;">
]>
<svg enable-background="new 0 0 50 50" version="1.1" viewBox="0 0 50 50" xml:space="preserve" xmlns="http://www.w3.org/2000/svg">
<rect y=".1" width="50" height="50" fill="#1E4598"/>
<path d="m31.3 15.6-6.3-8.3-6.3 8.3c-4.8 6.2-6.7 9.1-6.7 13.3 0 3.6 0.9 5.3 4.2 7.7l8.8 6.3 8.7-6.3c3.3-2.4 4.3-4.1 4.3-7.7 0-4.3-1.9-7.1-6.7-13.3zm-8.2 20.5-0.1 1.7c0 0.2-0.1 0.2-0.3 0.1-2.3-1.6-4.9-3.6-4.9-3.6-2.8-2-2.9-4.2-2.9-5.6 0-1 0.1-2.1 0.6-3.2 0-0.1 0.1-0.2 0.2-0.2s0.1 0 0.1 0.1c1 1.4 2.5 3.7 4.1 5.6 2.9 3.6 3.2 3.3 3.2 5.1zm1.9-3.2s-0.1-0.1 0 0l-6.2-7.3c-0.7-0.8-1.1-1.8-1.1-2.7 0-0.6 0.2-1.2 0.7-1.8l6.6-9 0.1-0.1s0.1 0 0.1 0.1l6.6 9c0.4 0.6 0.7 1.2 0.7 1.8 0 0.9-0.4 1.8-1.1 2.7l-6.4 7.3c0.1 0 0 0 0 0zm7.2 1.5s-2.7 1.9-4.9 3.6c-0.1 0.1-0.2 0.1-0.3-0.1l-0.1-1.7c-0.1-1.8 0.2-1.5 3.2-5.1 1.6-1.9 3.1-4.2 4.1-5.6 0-0.1 0.1-0.1 0.1-0.1 0.1 0 0.1 0.1 0.2 0.2 0.4 1.1 0.6 2.2 0.6 3.2 0.1 1.4-0.1 3.6-2.9 5.6z" fill="#fff"/>
</svg>
