<?xml version="1.0" encoding="UTF-8"?>
<!DOCTYPE svg  PUBLIC '-//W3C//DTD SVG 1.1//EN'  'http://www.w3.org/Graphics/SVG/1.1/DTD/svg11.dtd' [
	<!ENTITY st0 "fill:#4E2F80;">
	<!ENTITY st1 "fill:#FFFFFF;">
]>
<svg enable-background="new 0 0 50 50" version="1.1" viewBox="0 0 50 50" xml:space="preserve" xmlns="http://www.w3.org/2000/svg">
<rect width="50" height="50" fill="#4E2F80"/>
<path d="m9.4 37.2c2.6 1.2 5.1 2.4 7.7 3.6 0.1 0.1 0.3 0.1 0.4 0.1h5.8c0.3 0 0.4-0.1 0.4-0.4v-5.2-0.3c-0.1 0.1-0.3 0.1-0.4 0.2-1.8 0.8-3.6 1.4-5.6 1.2-0.8-0.1-1.5-0.4-2.1-0.9-1-1-1.3-2.2-1.3-3.6 0-1.1 0.1-2.2 0.2-3.3 0.1-1.3 0.5-2.6 1-3.8 1.5-3.2 3.6-6 6.2-8.5 0.8-0.8 1.8-1.4 2.8-2.2 0.2-0.2 0.4-0.2 0.7 0 0.8 0.6 1.5 1.1 2.2 1.6 1.8 1.6 3.3 3.4 4.7 5.4s2.5 4.1 2.9 6.5c0.3 1.8 0.6 3.5 0.2 5.3-0.4 2.4-1.9 3.4-4 3.5-1.1 0-2.1-0.2-3.1-0.6-0.7-0.3-1.4-0.6-2.2-0.8v0.2 5.1c0 0.4 0.1 0.4 0.5 0.4h5.6c0.2 0 0.5-0.1 0.7-0.2 2.5-1.2 4.9-2.4 7.4-3.5 0.5-0.2 0.5-0.2 0.4-0.8-1.4-5.4-2.8-10.9-4.1-16.3-0.1-0.2-0.1-0.4-0.3-0.5-0.6-0.6-1.1-1.1-1.7-1.6l-3.3-3c-1.5-1.3-2.9-2.6-4.4-4-0.6-0.5-1.2-1.1-1.7-1.6-0.2-0.2-0.3-0.2-0.5 0-0.2 0.4-0.5 0.6-0.7 0.8-1.1 1.1-2.3 2.1-3.4 3.1-1.2 1.1-2.4 2.2-3.7 3.3l-2.7 2.4c-0.3 0.3-0.8 0.6-0.9 1.1-1.4 5.4-2.7 10.9-4.1 16.3 0 0.7 0 0.9 0.4 1z" fill="#fff"/>
</svg>
