<?xml version="1.0" encoding="UTF-8"?>
<!DOCTYPE svg  PUBLIC '-//W3C//DTD SVG 1.1//EN'  'http://www.w3.org/Graphics/SVG/1.1/DTD/svg11.dtd' [
	<!ENTITY st0 "fill:#1BA5DF;">
	<!ENTITY st1 "fill:#FFFFFF;">
]>
<svg enable-background="new 0 0 50 50" version="1.1" viewBox="0 0 50 50" xml:space="preserve" xmlns="http://www.w3.org/2000/svg">
<rect y=".1" width="50" height="50" fill="#1BA5DF"/>
<g transform="matrix(1.25 0 0 -1.25 363.71 521.25)">
	<path d="m-265.5 388.9s0.2 0.3 0.2-0.1c0 0 0.2-2.2-1.1-3.6-0.9-0.9-2.9-2.2-5.2-1.6 0 0 3.7 0.2 4.6 3.9l0.1 0.4s0.9 0.2 1.4 1m8.4 11.3v0.1s-0.1 0.2-0.2 0.6c0 0.1-0.1 0.1-0.1 0.2v0.1c-0.2 0.6-0.7 1.4-1.5 2.2 0 0 0.9 0.1-0.1 1.1 0 0-1.6 1.8-4.6 3.2-1.6 0.8-3.4 0.4-3.3-1.4 0.1-1.2-1.1-1.8-2-1.6-1.1 0.1-1.8 1-1.6 1.8s0.6 1.4 1.2 1.9c0.4 0.3 0.7 0.6 1.4 0.7 0.4 0.1 1.1 0.2 1.2-0.3 0.3 0.2 0.9 1.2-0.9 1.2 0 0-0.3 0.6-0.9 0.5 0 0-1.8 1.8-3.8-0.4 0 0-0.8-0.3-0.8 0 0.2-0.1 0.5 0.3 0.1 0.4-0.2 0.1-0.4-0.1-0.4-0.3 0-0.1 0-0.5 0.4-0.5h0.3l-0.1-0.2c-0.6-0.2-1.2-0.1-1.3 0.4 0.1-0.1 0.3 0 0.3 0.2 0.1 0.2-0.1 0.4-0.3 0.4-0.3 0.1-0.5-0.3-0.4-0.7 0.1-0.5 0.6-0.9 1.3-0.8l-0.1-0.2s-0.7-0.8-1.2-1.8c-0.6-0.9-2.8-2-2.4 0.3 0.1 0.7-1.1 1.6-3.2 0.1-1.1-0.8-2.5-1.9-3.6-3.8 0 0-0.4-0.7 0.3-0.8 0 0-1.5-0.7-1.6-4.2v-0.3-0.4c0-0.4 0-0.8 0.1-1.1 0 0 0.2-2.1 0.5-2.4h0.1c0.1-0.1 0.2-0.1 0.4 0.1 0 0 0.5-2.4 1.4-4.3 0.8-1.6 2.2-3.8 1.6-4.4s-1.3 0.6-1.2 0.1c0.2-0.9 1.2-1.1 1.7-0.7 1.3 1.1-0.6 3.6-1.2 6.8 1.3 0.6 1.2 2.6 1.2 2.6s1.8 0.1 2.4 2.2c0 0 2.2-0.6 3.2 1.3 0.2-0.7 0.6-1.2 1.2-1.8 0 0-0.1-0.9-1.1-1.2 0 0-1.2 0.5-2.6 0-1.2-0.5-0.8-1.8 0.2-1.5-0.3 0.1-0.4 0.6 0.1 0.7 0.1-0.1 0.2-0.1 0.4-0.2 0 0 1.1-0.2 1.9 0.1 0.1 0 0.1 0 0.2 0.1l0.2 0.2c0.3 0 0.5-0.4 0.1-0.6 0.8-0.2 1 0.6 0.7 1.1 0 0 0.2 0.1 0.4 0.3 0 0 0.2 0.2 0.4 0.5 0 0 0.8-0.6 2.1-0.9 0 0-0.7-1.2-1.8-1.4 0 0-1.5 0.5-2.5-0.1 0 0-0.6-0.3-0.5-0.9 0.1-0.4 0.4-0.8 1-0.7-0.2 0.1-0.7 0.7-0.1 0.9 0.1-0.2 0.2-0.3 0.4-0.3 0 0 0.9-0.2 2.1 0.3 0.1 0 0.1 0 0.1 0.1h0.1l0.2 0.2c0.3 0.1 0.7-0.1 0.6-0.7 0.4 0.1 0.9 0.7 0.1 1.2 0 0 0.5 0.2 0.9 0.6l0.6 0.6c1.2-0.2 2.1-1.3 2.1-2.7 0-1.1-1-2.5-2-2.8h0.1-0.1c-0.2 0-0.3-0.1-0.6-0.1-1.1 0-0.4 1.2-0.4 1.2-0.2 0-0.3 0-0.5-0.2s-0.2-0.6-0.2-0.9c-0.1 0-0.1 0-0.1 0.1-0.9 0.4-0.9 1.1-0.9 1.1-0.2-0.1-0.4-0.4-0.3-0.9 0.1-0.7 1-1 1.8-1.1 0.4-0.4 1.1-0.8 2.6-0.6 0 0-0.7-3.6-5.2-3.4 0 0-1.4 0.5-1.3 1.6 0.1 1.5 1.1 2.1 1.1 2.1-0.4 0.1-1.3-0.1-1.8-1.3-0.2-0.6-0.1-1.5 0.4-2.1-1.7 0.4-3 1.7-2.4 3.5 0.1 0.3 0.2 0.6 0.5 0.8 1.3 1.2 3.2 0.5 3.2 0.5-0.1 0.4-0.6 1-1.6 1-1 0.1-2.8-0.5-3-2.8-0.1-2.1 1.2-3.6 4.4-4h0.1s2-1.4 4.8-0.6c0 0 5.6 1.1 4.4 7.6 0 0 1.3 4.3-1.4 6.7 1.7-1.4 3.8-0.6 3.8-0.6-0.1-3.9 1.5-4.4 1.5-4.4h0.1s-3.1-6.6-1.3-7.5c0.6-0.3 1.3-0.1 1.7 0.6 0.3 0.6-0.7-0.6-1.2-0.1-0.7 0.7 0.2 2.2 1 3.9 1.1 2.3 1.9 4 2 5.1 0 0 0.2-0.1 0.4 0 0.4 0.1 0.7 1.9 0.8 2.2 0.1 1.6 0 2.8-0.2 3.6" fill="#fff"/>
</g>
</svg>
