<?xml version="1.0" encoding="UTF-8"?>
<!DOCTYPE svg  PUBLIC '-//W3C//DTD SVG 1.1//EN'  'http://www.w3.org/Graphics/SVG/1.1/DTD/svg11.dtd' [
	<!ENTITY st0 "fill:#FEC43B;">
	<!ENTITY st1 "fill:#FFFFFF;">
]>
<svg enable-background="new 0 0 50 50" version="1.1" viewBox="0 0 50 50" xml:space="preserve" xmlns="http://www.w3.org/2000/svg">
<rect y=".1" width="50" height="50" fill="#FEC43B"/>
<g fill="#fff">
	<path d="m18.9 21.3c0.6 1.2 1.3 2.5 2.2 3.5 0.3-0.6 0.6-1.2 0.9-1.9 1.1-2.8 1.7-5.8 2.1-8.8 0.3-2.3 0.5-4.6 0.4-6.8-2.6 0.1-5.2 0.7-7.6 1.9-0.1 0-0.1 0.1-0.2 0.1-0.1 0.4 0 0.9 0 1.4 0.1 3.6 0.7 7.3 2.2 10.6z"/>
	<path d="m27.4 21.2c0.4 1.2 0.8 2.5 1.4 3.6 0.7-0.8 1.2-1.6 1.7-2.5 1.5-2.8 2.2-5.9 2.6-9 0.1-1.3 0.2-2.6 0.1-3.9-0.5-0.4-1.2-0.6-1.8-0.9-1.9-0.7-3.9-1.1-5.9-1.2 0 1.1 0 2.2 0.1 3.3 0.2 3.6 0.7 7.2 1.8 10.6z"/>
	<path d="m12.4 23c1.3-2 2.1-4.2 2.7-6.6 0.5-2.1 0.7-4.3 0.7-6.5-0.1 0.1-0.3 0.1-0.4 0.2-2.2 1.4-4.2 3.4-5.6 5.7-2.1 3.4-3 7.5-2.5 11.4 2.1-0.9 3.9-2.4 5.1-4.2z"/>
	<path d="m40.7 16.8c-1.2-2.4-3.1-4.5-5.3-6.1-0.4-0.3-0.8-0.6-1.2-0.8 0 1.8 0.2 3.5 0.5 5.3 0.5 2.6 1.3 5.3 2.8 7.5 1.2 2 3.1 3.6 5.2 4.5 0.4-3.5-0.3-7.3-2-10.4z"/>
	<path d="m19.7 28.1c-0.1-0.2-0.3-0.4-0.5-0.6-0.8-0.9-1.4-1.8-1.9-2.8-0.4-0.8-0.7-1.7-1-2.5-0.2 0.2-0.2 0.5-0.3 0.8-0.5 1.4-1.2 2.8-2.1 4-1.4 1.8-3.3 3.4-5.5 4.2 0 0.2 0.1 0.3 0.1 0.5 0.6 1.4 1.3 2.7 2.2 3.9 0.4 0.4 0.7 0.9 1.1 1.3 0.3-0.1 0.5-0.2 0.8-0.4 2.7-1.7 4.8-4.2 6.4-6.9 0.2-0.5 0.5-1 0.7-1.5z"/>
	<path d="m25.2 23.1c-0.1-0.3-0.1-0.6-0.2-0.9-0.2 0.3-0.2 0.6-0.3 0.9-0.6 3-1.5 6-2.7 8.8-1.4 3.2-3.1 6.2-5.6 8.6-0.1 0.1 0.1 0.2 0.2 0.2 2.5 1.3 5.3 2 8.2 2.1 3 0 6.1-0.7 8.8-2.2-2.5-2.5-4.4-5.6-5.7-8.8-1.2-2.8-2.1-5.7-2.7-8.7z"/>
	<path d="m34 22.9c-0.1-0.3-0.1-0.5-0.3-0.8-0.2 0.3-0.2 0.6-0.4 0.9-0.7 1.8-1.7 3.5-3 4.9-0.1 0.1 0 0.2 0 0.4 0.6 1.1 1.2 2.2 2 3.2 1.4 1.9 3.1 3.7 5.1 5 0.2 0.1 0.4 0.3 0.7 0.4 0.2-0.1 0.3-0.4 0.5-0.5 0.9-1.1 1.7-2.4 2.4-3.7l0.6-1.5c-1.2-0.4-2.3-1.1-3.2-1.9-2-1.7-3.5-3.9-4.4-6.4z"/>
</g>
</svg>
