<?xml version="1.0" encoding="UTF-8"?>
<!DOCTYPE svg  PUBLIC '-//W3C//DTD SVG 1.1//EN'  'http://www.w3.org/Graphics/SVG/1.1/DTD/svg11.dtd' [
	<!ENTITY st0 "fill:url(#SVGID_1_);">
	<!ENTITY st1 "fill:#673593;">
	<!ENTITY st2 "fill:#696D70;">
	<!ENTITY st3 "fill:#606060;">
	<!ENTITY st4 "fill:#FFFFFF;">
	<!ENTITY st5 "fill:#F9A61C;">
]>
<svg enable-background="new 0 0 269 65.2" version="1.1" viewBox="0 0 269 65.2" xml:space="preserve" xmlns="http://www.w3.org/2000/svg">
<linearGradient id="a" x2="269" y1="32.621" y2="32.621" gradientUnits="userSpaceOnUse">
	<stop stop-color="#fff" offset="0"/>
	<stop stop-color="#ABB3B7" offset="1"/>
</linearGradient>
<rect y=".2" width="269" height="64.9" fill="url(#a)"/>
<path d="m161.8 10.1c-7.5-8.5-21.3-9.2-21.3-9.2h-23.3l-2 10.9c-2.7-10.7-14.9-10.9-14.9-10.9h-34.4l-3.9 21c-1-5.5-3-10.5-10.4-15.6-7.4-5.2-17.5-5.4-17.5-5.4h-22.3l-11.6 63.5h20.2s10.7 0.4 21-4.3c3.7-1.7 5.9-3.1 6.8-3.8 4.9-3.5 7.7-7.8 9.2-10.5v0.3l-3.2 18.2h34.3s10.7 0.3 18.8-10.1l-1.7 10.1h19.7 1.4c5.2-0.3 16-2.1 26.4-9.5 11.2-8 13.8-21 14.1-24s2.1-12.2-5.4-20.7zm-121.2 27.3c-1.5 3.1-6.4 10.9-17.2 10.1l6.2-33.4s8.3-0.8 11.6 5.3 0.8 15-0.6 18zm42.9-21.9h8.1s4.2 0.4 4.5 4.6-4.7 6.8-7.7 6.8-7 0-7 0l2.1-11.4zm0.6 33.5h-7l0.6-3.6 0.8-4.6 0.5-3.1v-0.2h0.4s1 0 2.4 0h4.9c2.3 0.1 3.7 1.5 3.7 1.5 0.7 0.7 1.2 1.6 1.3 3 0.4 4.4-4.6 7-7.6 7zm61.8-11.6c-1.5 3.1-6.4 10.9-17.2 10.1l6.2-33.4s8.3-0.8 11.6 5.3 0.8 15-0.6 18z" fill="#673593"/>
<g fill="#696D70">
	<path d="m185.4 27.3h-2.6l-2.1-14.1h2.4l1.5 10.7 4.9-10.7h2.4l-6.5 14.1z"/>
	<path d="M190.5,27.3l2.5-14.1h8.8l-0.4,2.4H195l-0.6,3.2h6.1l-0.4,2.4H194l-0.7,3.8h6.9l-0.4,2.4H190.5z"/>
	<path d="m204 27.3h-2.4l2.5-14.1h5.3c0.9 0 1.6 0.1 2.1 0.3s0.9 0.6 1.2 1.2 0.5 1.3 0.5 2.1c0 1.2-0.3 2.2-0.9 3s-1.5 1.3-2.7 1.4c0.3 0.3 0.6 0.8 0.9 1.3 0.5 1.1 1.1 2.7 1.8 4.7h-2.6c-0.2-0.8-0.6-2-1.2-3.7-0.3-0.9-0.7-1.5-1.1-1.8-0.2-0.2-0.6-0.3-1.2-0.3h-1l-1.2 5.9zm1.4-8h1.3c1.3 0 2.2-0.1 2.6-0.3s0.8-0.5 1-0.9 0.4-0.8 0.4-1.3-0.2-0.9-0.5-1.2c-0.2-0.2-0.7-0.2-1.4-0.2h-2.7l-0.7 3.9z"/>
	<path d="m213.4 27.3 2.5-14.1h2.4l-2.5 14.1h-2.4z"/>
	<path d="M218,27.3l2.5-14.1h8.3l-0.4,2.4h-5.8l-0.6,3.4h5.7l-0.4,2.4h-5.7l-1,6H218z"/>
	<path d="M228,27.3l2.5-14.1h2.4l-2.5,14.1H228z"/>
	<path d="m232.7 27.3 2.5-14.1h8.8l-0.4 2.4h-6.3l-0.6 3.2h6.1l-0.4 2.4h-6.1l-0.7 3.8h6.9l-0.4 2.4h-9.4z"/>
	<path d="m243.8 27.3 2.5-14.1h3.2 1.7c0.5 0.1 0.9 0.2 1.3 0.4s0.7 0.4 1 0.8c0.3 0.3 0.6 0.7 0.8 1.2s0.4 1 0.5 1.6 0.2 1.2 0.2 1.9c0 1.5-0.2 2.9-0.7 4-0.5 1.2-1.1 2.1-1.8 2.8-0.6 0.5-1.3 0.9-2.2 1.2-0.5 0.1-1.3 0.2-2.3 0.2h-4.2zm2.8-2.3h1.2c0.9 0 1.5-0.1 1.9-0.2s0.8-0.4 1.1-0.7c0.5-0.5 0.9-1.2 1.2-2.1s0.5-1.9 0.5-3.1c0-1-0.1-1.8-0.4-2.3s-0.6-0.8-1-1c-0.3-0.1-0.8-0.2-1.5-0.2h-1.4l-1.6 9.6z"/>
</g>
<g fill="#606060">
	<path d="m179.7 47.6 2.1-0.2c0.1 0.8 0.4 1.3 0.8 1.7s0.9 0.5 1.5 0.5c0.7 0 1.2-0.2 1.5-0.5s0.5-0.7 0.5-1.1c0-0.3-0.1-0.5-0.2-0.7s-0.4-0.4-0.8-0.5c-0.2-0.1-0.8-0.3-1.7-0.5-1.1-0.3-1.9-0.7-2.4-1.2-0.6-0.6-1-1.4-1-2.4 0-0.6 0.2-1.2 0.5-1.7s0.7-0.9 1.3-1.2 1.3-0.4 2.1-0.4c1.3 0 2.3 0.3 3 1 0.7 0.6 1 1.5 1.1 2.6l-2.1 0.1c-0.1-0.6-0.3-1-0.6-1.3s-0.7-0.4-1.3-0.4-1.1 0.1-1.4 0.4c-0.2 0.2-0.3 0.4-0.3 0.7s0.1 0.5 0.3 0.7c0.3 0.3 0.9 0.5 2 0.8 1 0.3 1.8 0.6 2.3 0.8 0.5 0.3 0.9 0.7 1.2 1.2s0.4 1.1 0.4 1.9c0 0.7-0.2 1.3-0.5 1.9s-0.8 1-1.4 1.3-1.4 0.4-2.3 0.4c-1.3 0-2.4-0.3-3.1-1-0.9-0.6-1.3-1.6-1.5-2.9z"/>
	<path d="M190,51.4V39.7h2.1v11.7H190z"/>
	<path d="m194.2 51.4v-11.6h2.1v9.7h5.3v2h-7.4z"/>
	<path d="m204.7 51.4-3.7-11.7h2.3l2.7 8.7 2.6-8.7h2.3l-3.9 11.7h-2.3z"/>
	<path d="M211.8,51.4V39.7h7.8v2H214v2.6h5.3v2H214v3.2h5.9v2H211.8z"/>
	<path d="m221.6 51.4v-11.7h4.5c1.1 0 1.9 0.1 2.5 0.3 0.5 0.2 0.9 0.6 1.2 1.1s0.5 1.2 0.5 1.9c0 0.9-0.2 1.6-0.7 2.2s-1.2 0.9-2.1 1.1c0.5 0.3 0.8 0.6 1.1 1s0.7 1 1.2 1.9l1.3 2.3h-2.5l-1.5-2.6c-0.5-0.9-0.9-1.5-1.1-1.7s-0.4-0.4-0.6-0.5-0.6-0.1-1.1-0.1h-0.4v4.9h-2.3zm2.2-6.7h1.6c1 0 1.7 0 1.9-0.1 0.3-0.1 0.5-0.3 0.6-0.5s0.2-0.5 0.2-0.9-0.1-0.7-0.3-1c-0.2-0.2-0.5-0.4-0.8-0.5h-1.5-1.7v3z"/>
</g>
<g fill="#fff">
	<path d="M183.7,26.1h-2.6L179,12h2.4l1.5,10.7l4.9-10.7h2.4L183.7,26.1z"/>
	<path d="m188.8 26.1 2.5-14.1h8.8l-0.4 2.4h-6.3l-0.6 3.2h6.1l-0.4 2.4h-6.1l-0.7 3.8h6.9l-0.4 2.4h-9.4z"/>
	<path d="m202.3 26.1h-2.4l2.5-14.1h5.3c0.9 0 1.6 0.1 2.1 0.3s0.9 0.6 1.2 1.2 0.5 1.3 0.5 2.1c0 1.2-0.3 2.2-0.9 3s-1.5 1.3-2.7 1.4c0.3 0.3 0.6 0.8 0.9 1.3 0.5 1.1 1.1 2.7 1.8 4.7h-2.6c-0.2-0.8-0.6-2-1.2-3.7-0.3-0.9-0.7-1.5-1.1-1.8-0.2-0.2-0.6-0.3-1.2-0.3h-1l-1.2 5.9zm1.4-7.9h1.3c1.3 0 2.2-0.1 2.6-0.3s0.8-0.5 1-0.9 0.4-0.8 0.4-1.3-0.2-0.9-0.5-1.2c-0.2-0.2-0.7-0.2-1.4-0.2h-2.7l-0.7 3.9z"/>
	<path d="m211.7 26.1 2.5-14.1h2.4l-2.5 14.1h-2.4z"/>
	<path d="m216.3 26.1 2.5-14.1h8.3l-0.4 2.4h-5.8l-0.6 3.4h5.7l-0.4 2.4h-5.7l-1 6h-2.6z"/>
	<path d="m226.4 26.1 2.5-14.1h2.4l-2.5 14.1h-2.4z"/>
	<path d="m231.1 26.1 2.5-14.1h8.8l-0.4 2.4h-6.3l-0.6 3.2h6.1l-0.4 2.4h-6.1l-0.7 3.8h6.9l-0.4 2.4h-9.4z"/>
	<path d="m242.1 26.1 2.5-14.1h3.2 1.7c0.5 0.1 0.9 0.2 1.3 0.4s0.7 0.4 1 0.8c0.3 0.3 0.6 0.7 0.8 1.2s0.4 1 0.5 1.6 0.2 1.2 0.2 1.9c0 1.5-0.2 2.9-0.7 4-0.5 1.2-1.1 2.1-1.8 2.8-0.6 0.5-1.3 0.9-2.2 1.2-0.5 0.1-1.3 0.2-2.3 0.2h-4.2zm2.8-2.2h1.2c0.9 0 1.5-0.1 1.9-0.2s0.8-0.4 1.1-0.7c0.5-0.5 0.9-1.2 1.2-2.1s0.5-1.9 0.5-3.1c0-1-0.1-1.8-0.4-2.3s-0.6-0.8-1-1c-0.3-0.1-0.8-0.2-1.5-0.2h-1.4l-1.6 9.6z"/>
</g>
<g fill="#fff">
	<path d="m178.2 46.5 2.1-0.2c0.1 0.8 0.4 1.3 0.8 1.7s0.9 0.5 1.5 0.5c0.7 0 1.2-0.2 1.5-0.5s0.5-0.7 0.5-1.1c0-0.3-0.1-0.5-0.2-0.7s-0.4-0.4-0.8-0.5c-0.2-0.1-0.8-0.3-1.7-0.5-1.1-0.3-1.9-0.7-2.4-1.2-0.6-0.6-1-1.4-1-2.4 0-0.6 0.2-1.2 0.5-1.7s0.7-0.9 1.3-1.2 1.3-0.4 2.1-0.4c1.3 0 2.3 0.3 3 1 0.7 0.6 1 1.5 1.1 2.6l-2.1 0.1c-0.1-0.6-0.3-1-0.6-1.3s-0.7-0.4-1.3-0.4-1.1 0.1-1.4 0.4c-0.2 0.2-0.3 0.4-0.3 0.7s0.1 0.5 0.3 0.7c0.3 0.3 0.9 0.5 2 0.8 1 0.3 1.8 0.6 2.3 0.8 0.5 0.3 0.9 0.7 1.2 1.2s0.4 1.1 0.4 1.9c0 0.7-0.2 1.3-0.5 1.9s-0.8 1-1.4 1.3-1.4 0.4-2.3 0.4c-1.3 0-2.4-0.3-3.1-1-0.9-0.6-1.4-1.6-1.5-2.9z"/>
	<path d="m188.5 50.4v-11.8h2.1v11.7h-2.1z"/>
	<path d="m192.7 50.4v-11.7h2.1v9.7h5.3v2h-7.4z"/>
	<path d="m203.2 50.4-3.8-11.7h2.3l2.7 8.7 2.6-8.7h2.3l-3.8 11.7h-2.3z"/>
	<path d="m210.3 50.4v-11.8h7.8v2h-5.7v2.6h5.3v2h-5.3v3.2h5.9v2h-8z"/>
	<path d="m220.1 50.4v-11.8h4.5c1.1 0 1.9 0.1 2.5 0.3 0.5 0.2 0.9 0.6 1.2 1.1s0.5 1.2 0.5 1.9c0 0.9-0.2 1.6-0.7 2.2s-1.2 0.9-2.1 1.1c0.5 0.3 0.8 0.6 1.1 1s0.7 1 1.2 1.9l1.3 2.3h-2.6l-1.5-2.6c-0.5-0.9-0.9-1.5-1.1-1.7s-0.4-0.4-0.6-0.5-0.6-0.1-1.1-0.1h-0.4v4.9h-2.2zm2.2-6.8h1.6c1 0 1.7 0 1.9-0.1 0.3-0.1 0.5-0.3 0.6-0.5s0.2-0.5 0.2-0.9-0.1-0.7-0.3-1c-0.2-0.2-0.5-0.4-0.8-0.5h-1.5-1.7v3z"/>
</g>
<polygon points="269 37.2 258.8 37.2 258.8 48.5 251.5 48.5 251.5 65.1 261 65.1 261 50.1 269 50.1" fill="#fff"/>
<path d="m0.5 64.4h-0.3v0.1s0.1-0.1 0.3-0.1z" fill="#673593"/>
<polygon points="0.2 64.5 0.2 64.5" fill="#673593"/>
<g fill="#F9A61C">
	<path d="m25.2 55.4c-10.3 3-22.7 8.2-24.7 9-0.2 0.1-0.3 0.1-0.3 0.1h20.5c7.5 0 14.7-1.3 23.5-5.5 8.3-4 12.9-12.3 13.3-13v0.2c-0.5 3.1-1.1 6.1-1.6 9.2l21.9-9.9 0.8-4.6 0.5-3.1s-14.2 5-15.6 5.5-27.1 8.8-38.3 12.1zm16.3 4.7c3.2-1.5 5.3-2.7 6.4-3.5-1.9 1.3-4 2.5-6.4 3.5zm7.9-4.6c-0.3 0.2-0.6 0.5-0.9 0.7 0.3-0.3 0.6-0.5 0.9-0.7z"/>
	<path d="m79.5 37.6h7.1c2.4 0 3.9 1.6 3.9 1.6 31.9-17.1 44.1-35.6 44.1-35.6-19.9 21.9-55.1 34-55.1 34z"/>
</g>
</svg>
