<?xml version="1.0" encoding="UTF-8"?>
<!DOCTYPE svg  PUBLIC '-//W3C//DTD SVG 1.1//EN'  'http://www.w3.org/Graphics/SVG/1.1/DTD/svg11.dtd' [
	<!ENTITY st0 "fill-rule:evenodd;clip-rule:evenodd;fill:#774C2B;">
	<!ENTITY st1 "fill-rule:evenodd;clip-rule:evenodd;fill:#EC501F;">
]>
<svg enable-background="new 0 0 269 65.2" version="1.1" viewBox="0 0 269 65.2" xml:space="preserve" xmlns="http://www.w3.org/2000/svg">
		<path d="m30.3 32.3c0.3-0.2 8.6-2.5 8.6-13.4 0-4.1-1.3-8.4-3.9-10.7-4.3-3.8-10.6-4.3-10.6-4.3h-23.5v46.9h8.9v-16.6c0-0.1-0.1-0.2 0.4-0.2h9.2c0.3 0 0.6 0.4 0.6 0.4l8.2 16.5h10.5s-8.7-17.4-8.8-17.8c0-0.4 0-0.6 0.4-0.8zm-6.5-7.1h-14v-12.6s10.4 0.1 14.1 0.1 5.4 2.9 5.4 6.6c0.1 3.7-2.9 5.9-5.5 5.9zm33-10.3c-6.6 0-9.4 1.6-9.4 1.6v7.8s2-2.1 9.4-2.1c5.2 0 5.2 3.9 5.2 4.7s0 1.8 0 1.8-2.6-1.2-6.7-1.2-14.4 0.9-14.4 11.8 10.1 12.2 13.2 12.2 7.9-2.9 7.9-2.9v2.2h8.7v-25.6s-0.2-10.3-13.9-10.3zm5.2 25.6c-0.8 1.5-3.9 3.4-6.8 3.4s-5.7-1.5-5.7-4.9c0-3.5 2.2-4.6 6.7-4.6s5.8 1.7 5.8 1.7 0 2.7 0 4.4zm53.9-38.4c-2.8 0-5 2.3-5 5 0 2.8 2.3 5 5 5s5-2.3 5-5c0.1-2.8-2.2-5-5-5zm-22.8 12.7c-4 0-7.6 2.8-7.6 2.8v-2h-9v48l9-4.7v-10.1s2.2 2.7 7.8 2.7 13.3-3.3 13.3-18.8c0.1-15.6-9.4-17.9-13.5-17.9zm-1.1 28.4c-4.4 0-6.4-3.4-6.4-3.4v-13.3s1.7-3.2 5.7-3.2c5.7 0 6.5 5.9 6.5 10.5 0 4.5-1.4 9.4-5.8 9.4zm54.6-36.8v11.3s-3.1-2.9-8-2.9-13.5 3.1-13.5 18 7.1 18.7 13.5 18.7c4.6 0 7.5-2.7 7.5-2.7l0.5 0.2v1.8h8.8v-49l-8.8 4.6zm0 33.5s-2.5 3.4-6 3.4-6.6-3.4-6.6-9.5c0-6.2 1.5-10.5 6-10.5s6.5 3.4 6.5 3.4v13.2zm-35.1 11h8.9v-35.3h-8.9v35.3z" clip-rule="evenodd" fill="#774C2B" fill-rule="evenodd"/>
		<path d="m181.3 22.4c-10.6-2.7-10.1-4.9-10.1-6s0.7-4.6 7.1-4.6c6.7 0 10.9 4.7 10.9 4.7l6.5-6.3s-6.4-7.2-17.4-7.2c-10.7 0-16.3 6.7-16.3 14.1 0 3.7 0.2 10.2 14.6 13.4 11.5 1.8 10.9 6.4 10.9 6.9 0 1.2-0.7 5.2-8.4 5.2s-12.6-5.3-12.6-5.3l-6.4 5.8s6.1 8.3 18.5 8.3c9.4 0 18.2-4 18.2-14 0-9.8-4.9-12.2-15.5-15zm38.8 0c-10.6-2.7-10.1-4.9-10.1-6s0.7-4.6 7.1-4.6c6.7 0 10.9 4.7 10.9 4.7l6.5-6.3s-6.4-7.2-17.4-7.2c-10.7 0-16.3 6.7-16.3 14.1 0 3.7 0.2 10.2 14.6 13.4 11.5 1.8 10.9 6.4 10.9 6.9 0 1.2-0.7 5.2-8.4 5.2s-12.6-5.3-12.6-5.3l-6.4 5.8s6.1 8.3 18.5 8.3c9.4 0 18.2-4 18.2-14 0-9.8-4.9-12.2-15.5-15zm42.8 19.5h-10.9v-38h-9.2v46.9h25.5l-5.4-8.9z" clip-rule="evenodd" fill="#EC501F" fill-rule="evenodd"/>
</svg>
