<svg xmlns="http://www.w3.org/2000/svg" width="21.87" height="22.949" viewBox="0 0 21.87 22.949"><path d="M1444.5-1555.646a.994.994,0,0,0,.706-.385.8.8,0,0,0,.272-.573.766.766,0,0,0-.309-.517,10.743,10.743,0,0,0-3.443-2.07,5.615,5.615,0,0,0,2.061-3.8,5.566,5.566,0,0,0-1.472-4.355,5.545,5.545,0,0,0-4.026-1.726,5.5,5.5,0,0,0-4.1,1.814,5.549,5.549,0,0,0-1.386,4.309,5.7,5.7,0,0,0,2.069,3.753,10.016,10.016,0,0,0-3.934,2.546,10.144,10.144,0,0,0-2.807,6.511c0,.031-.005.064-.009.1a.73.73,0,0,0,.122.6.549.549,0,0,0,.428.173,1.061,1.061,0,0,0,.172-.015.091.091,0,0,1,.02,0,1.137,1.137,0,0,1,.142.015,1.673,1.673,0,0,0,.235.022c.237,0,.639-.1.664-.787a7.69,7.69,0,0,1,1.541-4.444,8.022,8.022,0,0,1,3.693-2.938,9.588,9.588,0,0,1,3.249-.608,8.434,8.434,0,0,1,5.376,2.032A1.215,1.215,0,0,0,1444.5-1555.646Zm-6.223-11.644a3.787,3.787,0,0,1,2.7,1.114,3.7,3.7,0,0,1,1.087,2.64,3.775,3.775,0,0,1-3.767,3.756,3.772,3.772,0,0,1-3.76-3.743,3.724,3.724,0,0,1,1.083-2.661,3.713,3.713,0,0,1,2.642-1.106Z" transform="translate(-1428.117 1569.067)"/><path d="M1561.022-1437.763a3.008,3.008,0,0,0-4.031-.677.575.575,0,0,1-.722-.014,2.892,2.892,0,0,0-3.157-.056,2.919,2.919,0,0,0-1.521,2.66,2.883,2.883,0,0,0,.931,2.185q1.722,1.737,3.46,3.459c.5.492.827.49,1.324,0q1.715-1.705,3.421-3.419A3.043,3.043,0,0,0,1561.022-1437.763Zm-1.385,3.168c-.9.906-1.813,1.8-2.7,2.715-.239.246-.382.241-.619,0-.917-.941-1.862-1.854-2.781-2.794a1.611,1.611,0,0,1-.354-1.89,1.543,1.543,0,0,1,1.58-.894,1.464,1.464,0,0,1,1.117.538c.623.617.863.611,1.478.017a1.675,1.675,0,0,1,2.424-.093A1.6,1.6,0,0,1,1559.638-1434.595Z" transform="translate(-1539.826 1452.787)"/></svg>