<svg xmlns="http://www.w3.org/2000/svg" width="34.888" height="25.973" viewBox="0 0 34.888 25.973"><path d="M339.874-3.707a1.268,1.268,0,0,0-1.019-.5h-7.278l-3.029-6.238a1.28,1.28,0,0,0-1.648-.578,1.136,1.136,0,0,0-.617,1.543L328.846-4.2H316.811l2.152-5.334a1.146,1.146,0,0,0-.724-1.5,1.273,1.273,0,0,0-1.6.678L314.153-4.2h-7.7a1.27,1.27,0,0,0-1.017.5,1.1,1.1,0,0,0-.152,1.066l6.448,16.723a1.244,1.244,0,0,0,1.169.769h19.414a1.242,1.242,0,0,0,1.168-.764l6.539-16.723A1.106,1.106,0,0,0,339.874-3.707Zm-8.426,16.225H313.777l-5.55-14.392h4.986L313.1-1.6a1.143,1.143,0,0,0,.724,1.5,1.313,1.313,0,0,0,.439.076,1.245,1.245,0,0,0,1.164-.754l.441-1.1h14.106l.567,1.167a1.253,1.253,0,0,0,1.133.683,1.31,1.31,0,0,0,.514-.1,1.135,1.135,0,0,0,.617-1.543l-.1-.2h4.365Z" transform="translate(-305.211 11.125)"/><path d="M319.5-.716A1.205,1.205,0,0,0,318.258.449v6.98a1.246,1.246,0,0,0,2.487,0V.449A1.205,1.205,0,0,0,319.5-.716Z" transform="translate(-302.032 12.844)"/><path d="M314.6-.716A1.205,1.205,0,0,0,313.353.449v6.98a1.246,1.246,0,0,0,2.487,0V.449A1.206,1.206,0,0,0,314.6-.716Z" transform="translate(-303.227 12.844)"/><path d="M324.4-.716A1.205,1.205,0,0,0,323.161.449v6.98a1.246,1.246,0,0,0,2.487,0V.449A1.205,1.205,0,0,0,324.4-.716Z" transform="translate(-300.838 12.844)"/></svg>