<svg xmlns="http://www.w3.org/2000/svg" xmlns:xlink="http://www.w3.org/1999/xlink" width="47" height="47" viewBox="0 0 47 47"><defs><style>.a{fill:#fff;}.b{fill:url(#a);}</style><linearGradient id="a" x1="0.5" x2="0.5" y2="1" gradientUnits="objectBoundingBox"><stop offset="0" stop-color="#2bc1d1"/><stop offset="1" stop-color="#13a5b7"/></linearGradient></defs><circle class="a" cx="23.5" cy="23.5" r="23.5"/><g transform="translate(12.229 11.958)"><path class="b" d="M73.24,55.508a13.151,13.151,0,0,1,.23,2.457c0,6.685-4.54,11.44-11.4,11.44a11.7,11.7,0,1,1,0-23.405,11.485,11.485,0,0,1,7.939,3.05l-3.347,3.3v-.008a6.552,6.552,0,0,0-4.592-1.77,7.128,7.128,0,0,0,0,14.256c3.554,0,5.972-2,6.47-4.754h-6.47V55.508Z" transform="translate(-50.533 -46)"/></g></svg>