<svg xmlns="http://www.w3.org/2000/svg" xmlns:xlink="http://www.w3.org/1999/xlink" width="47" height="47" viewBox="0 0 47 47"><defs><style>.a{fill:#fff;}.b{fill:url(#a);}</style><linearGradient id="a" x1="0.5" x2="0.5" y2="1" gradientUnits="objectBoundingBox"><stop offset="0" stop-color="#2bc1d1"/><stop offset="1" stop-color="#13a5b7"/></linearGradient></defs><circle class="a" cx="23.5" cy="23.5" r="23.5" transform="translate(0 0)"/><g transform="translate(13.517 8.755)"><g transform="translate(7.456 7.048)"><path class="b" d="M198.148,120a2.148,2.148,0,1,0,2.148,2.148A2.15,2.15,0,0,0,198.148,120Z" transform="translate(-196 -120)"/></g><path class="b" d="M85.6,0a9.607,9.607,0,0,0-8.171,14.654L85.057,26.94a.8.8,0,0,0,1.368-.011l7.43-12.4A9.607,9.607,0,0,0,85.6,0Zm0,14.417A4.813,4.813,0,1,1,90.417,9.6,4.815,4.815,0,0,1,85.6,14.417Z" transform="translate(-76 0)"/></g></svg>